<svg width="512" height="512" viewBox="0 0 32 32" xmlns="http://www.w3.org/2000/svg">
  <defs>
    <linearGradient id="movveGrad" x1="4" y1="2" x2="28" y2="30" gradientUnits="userSpaceOnUse">
      <stop offset="0%" stop-color="#8BEA4E"/>
      <stop offset="100%" stop-color="#4A9B2F"/>
    </linearGradient>
  </defs>

  <path d="M5 3
           C4.2 3 3.5 3.7 3.5 4.5
           V27.5
           C3.5 28.3 4.2 29 5 29
           H10.3
           L16 22.6
           L21.7 29
           H27
           C27.8 29 28.5 28.3 28.5 27.5
           V4.5
           C28.5 3.7 27.8 3 27 3
           H22.4
           L16 10.3
           L9.6 3
           H5Z"
        fill="url(#movveGrad)"/>

  <polyline points="4.2,21.8 10.2,13.2 13.3,16 18,10.6 22.2,15.7 28.2,5.3"
            fill="none"
            stroke="white"
            stroke-width="1.2"
            stroke-linecap="round"
            stroke-linejoin="round"/>

  <circle cx="10.2" cy="13.2" r="1.1" fill="white"/>
  <circle cx="13.3" cy="16" r="1.1" fill="white"/>
  <circle cx="18" cy="10.6" r="1.1" fill="white"/>
  <circle cx="22.2" cy="15.7" r="1.1" fill="white"/>
</svg>
